<mxfile host="app.diagrams.net" modified="2023-07-18T10:00:24.062Z" agent="Mozilla/5.0 (Windows NT 10.0; Win64; x64; rv:109.0) Gecko/20100101 Firefox/114.0" etag="Xp9L49dzHvK9KrvHT9hW" version="21.6.2">
  <diagram name="Page-1" id="jT81VOFueob0oWWeU9Mt">
    <mxGraphModel dx="1728" dy="960" grid="1" gridSize="10" guides="1" tooltips="1" connect="1" arrows="1" fold="1" page="1" pageScale="1" pageWidth="1100" pageHeight="850" math="0" shadow="0">
      <root>
        <mxCell id="0" />
        <mxCell id="1" parent="0" />
        <mxCell id="diblLVswrhK0cE1U2o6_-8" value="" style="rounded=0;whiteSpace=wrap;html=1;" vertex="1" parent="1">
          <mxGeometry x="335.5" y="10" width="535" height="320" as="geometry" />
        </mxCell>
        <mxCell id="Kx07bvd-4rYV5RhQG2fd-19" value="CPU0 - Registers" style="rounded=1;whiteSpace=wrap;html=1;" parent="1" vertex="1">
          <mxGeometry x="400.5" y="30" width="120" height="60" as="geometry" />
        </mxCell>
        <mxCell id="Kx07bvd-4rYV5RhQG2fd-20" value="CPU0 - &lt;br&gt;&lt;div&gt;L1 Cache&lt;/div&gt;" style="rounded=1;whiteSpace=wrap;html=1;" parent="1" vertex="1">
          <mxGeometry x="370.5" y="140" width="180" height="60" as="geometry" />
        </mxCell>
        <mxCell id="Kx07bvd-4rYV5RhQG2fd-21" value="CPU 0 &amp;amp; 1 - L2 Cache" style="rounded=1;whiteSpace=wrap;html=1;" parent="1" vertex="1">
          <mxGeometry x="370.5" y="250" width="460" height="60" as="geometry" />
        </mxCell>
        <mxCell id="Kx07bvd-4rYV5RhQG2fd-22" value="L3 Cache" style="rounded=1;whiteSpace=wrap;html=1;" parent="1" vertex="1">
          <mxGeometry x="428" y="360" width="345" height="60" as="geometry" />
        </mxCell>
        <mxCell id="Kx07bvd-4rYV5RhQG2fd-23" value="Memory (RAM)" style="rounded=1;whiteSpace=wrap;html=1;" parent="1" vertex="1">
          <mxGeometry x="370.5" y="470" width="460" height="60" as="geometry" />
        </mxCell>
        <mxCell id="Kx07bvd-4rYV5RhQG2fd-24" value="Storage (HDD, SSD, NVMe)" style="rounded=1;whiteSpace=wrap;html=1;" parent="1" vertex="1">
          <mxGeometry x="300.5" y="580" width="600" height="60" as="geometry" />
        </mxCell>
        <mxCell id="Kx07bvd-4rYV5RhQG2fd-25" value="&lt;font style=&quot;font-size: 24px;&quot;&gt;Faster/Smaller&lt;/font&gt;" style="text;html=1;strokeColor=none;fillColor=none;align=center;verticalAlign=middle;whiteSpace=wrap;rounded=0;" parent="1" vertex="1">
          <mxGeometry x="10" y="80" width="190" height="50" as="geometry" />
        </mxCell>
        <mxCell id="Kx07bvd-4rYV5RhQG2fd-26" value="&lt;font style=&quot;font-size: 24px;&quot;&gt;Slower/Larger&lt;/font&gt;" style="text;html=1;strokeColor=none;fillColor=none;align=center;verticalAlign=middle;whiteSpace=wrap;rounded=0;" parent="1" vertex="1">
          <mxGeometry x="10" y="580" width="190" height="50" as="geometry" />
        </mxCell>
        <mxCell id="diblLVswrhK0cE1U2o6_-2" value="" style="shape=flexArrow;endArrow=classic;startArrow=classic;html=1;rounded=0;entryX=0.5;entryY=1;entryDx=0;entryDy=0;exitX=0.25;exitY=0;exitDx=0;exitDy=0;" edge="1" parent="1" source="Kx07bvd-4rYV5RhQG2fd-21" target="Kx07bvd-4rYV5RhQG2fd-20">
          <mxGeometry width="100" height="100" relative="1" as="geometry">
            <mxPoint x="470.5" y="300" as="sourcePoint" />
            <mxPoint x="570.5" y="200" as="targetPoint" />
          </mxGeometry>
        </mxCell>
        <mxCell id="diblLVswrhK0cE1U2o6_-3" value="" style="shape=flexArrow;endArrow=classic;startArrow=classic;html=1;rounded=0;entryX=0.5;entryY=1;entryDx=0;entryDy=0;" edge="1" parent="1" source="Kx07bvd-4rYV5RhQG2fd-22" target="Kx07bvd-4rYV5RhQG2fd-21">
          <mxGeometry width="100" height="100" relative="1" as="geometry">
            <mxPoint x="545" y="410" as="sourcePoint" />
            <mxPoint x="645" y="310" as="targetPoint" />
          </mxGeometry>
        </mxCell>
        <mxCell id="diblLVswrhK0cE1U2o6_-4" value="" style="shape=flexArrow;endArrow=classic;startArrow=classic;html=1;rounded=0;entryX=0.5;entryY=1;entryDx=0;entryDy=0;exitX=0.5;exitY=0;exitDx=0;exitDy=0;" edge="1" parent="1" source="Kx07bvd-4rYV5RhQG2fd-23" target="Kx07bvd-4rYV5RhQG2fd-22">
          <mxGeometry width="100" height="100" relative="1" as="geometry">
            <mxPoint x="610" y="370" as="sourcePoint" />
            <mxPoint x="610" y="320" as="targetPoint" />
          </mxGeometry>
        </mxCell>
        <mxCell id="diblLVswrhK0cE1U2o6_-5" value="" style="shape=flexArrow;endArrow=classic;startArrow=classic;html=1;rounded=0;entryX=0.5;entryY=1;entryDx=0;entryDy=0;" edge="1" parent="1" source="Kx07bvd-4rYV5RhQG2fd-24" target="Kx07bvd-4rYV5RhQG2fd-23">
          <mxGeometry width="100" height="100" relative="1" as="geometry">
            <mxPoint x="611" y="480" as="sourcePoint" />
            <mxPoint x="611" y="430" as="targetPoint" />
          </mxGeometry>
        </mxCell>
        <mxCell id="diblLVswrhK0cE1U2o6_-6" value="" style="shape=flexArrow;endArrow=classic;startArrow=classic;html=1;rounded=0;entryX=0.5;entryY=1;entryDx=0;entryDy=0;" edge="1" parent="1" source="Kx07bvd-4rYV5RhQG2fd-26" target="Kx07bvd-4rYV5RhQG2fd-25">
          <mxGeometry width="100" height="100" relative="1" as="geometry">
            <mxPoint x="110" y="370" as="sourcePoint" />
            <mxPoint x="210" y="270" as="targetPoint" />
          </mxGeometry>
        </mxCell>
        <mxCell id="diblLVswrhK0cE1U2o6_-7" value="&lt;font style=&quot;font-size: 30px;&quot;&gt;2-Core CPU Hierarchy&lt;br&gt;&lt;/font&gt;" style="text;html=1;strokeColor=none;fillColor=none;align=center;verticalAlign=middle;whiteSpace=wrap;rounded=0;" vertex="1" parent="1">
          <mxGeometry x="10" y="10" width="310" height="60" as="geometry" />
        </mxCell>
        <mxCell id="diblLVswrhK0cE1U2o6_-12" value="" style="shape=flexArrow;endArrow=classic;startArrow=classic;html=1;rounded=0;entryX=0.5;entryY=1;entryDx=0;entryDy=0;exitX=0.486;exitY=0;exitDx=0;exitDy=0;exitPerimeter=0;" edge="1" parent="1" source="Kx07bvd-4rYV5RhQG2fd-20">
          <mxGeometry width="100" height="100" relative="1" as="geometry">
            <mxPoint x="463" y="140" as="sourcePoint" />
            <mxPoint x="458" y="90" as="targetPoint" />
          </mxGeometry>
        </mxCell>
        <mxCell id="diblLVswrhK0cE1U2o6_-13" value="CPU1 - Registers" style="rounded=1;whiteSpace=wrap;html=1;" vertex="1" parent="1">
          <mxGeometry x="680.5" y="30" width="120" height="60" as="geometry" />
        </mxCell>
        <mxCell id="diblLVswrhK0cE1U2o6_-14" value="" style="shape=flexArrow;endArrow=classic;startArrow=classic;html=1;rounded=0;entryX=0.5;entryY=1;entryDx=0;entryDy=0;exitX=0.486;exitY=0;exitDx=0;exitDy=0;exitPerimeter=0;" edge="1" source="diblLVswrhK0cE1U2o6_-15" parent="1">
          <mxGeometry width="100" height="100" relative="1" as="geometry">
            <mxPoint x="743" y="140" as="sourcePoint" />
            <mxPoint x="738" y="90" as="targetPoint" />
          </mxGeometry>
        </mxCell>
        <mxCell id="diblLVswrhK0cE1U2o6_-15" value="CPU1 - &lt;br&gt;&lt;div&gt;L1 Cache&lt;/div&gt;" style="rounded=1;whiteSpace=wrap;html=1;" vertex="1" parent="1">
          <mxGeometry x="650.5" y="140" width="180" height="60" as="geometry" />
        </mxCell>
        <mxCell id="diblLVswrhK0cE1U2o6_-16" value="" style="shape=flexArrow;endArrow=classic;startArrow=classic;html=1;rounded=0;entryX=0.5;entryY=1;entryDx=0;entryDy=0;exitX=0.75;exitY=0;exitDx=0;exitDy=0;" edge="1" target="diblLVswrhK0cE1U2o6_-15" parent="1" source="Kx07bvd-4rYV5RhQG2fd-21">
          <mxGeometry width="100" height="100" relative="1" as="geometry">
            <mxPoint x="746" y="250" as="sourcePoint" />
            <mxPoint x="830.5" y="200" as="targetPoint" />
          </mxGeometry>
        </mxCell>
      </root>
    </mxGraphModel>
  </diagram>
</mxfile>
